<?xml version="1.0" encoding="UTF-8"?>
<!DOCTYPE svg PUBLIC "-//W3C//DTD SVG 1.1//EN" "http://www.w3.org/Graphics/SVG/1.1/DTD/svg11.dtd">
<svg xmlns="http://www.w3.org/2000/svg" version="1.1" width="200px" height="200px" style="shape-rendering:geometricPrecision; text-rendering:geometricPrecision; image-rendering:optimizeQuality; fill-rule:evenodd; clip-rule:evenodd" xmlns:xlink="http://www.w3.org/1999/xlink">
<g><path style="opacity:1" fill="#ff6b3a" d="M -0.5,-0.5 C 66.1667,-0.5 132.833,-0.5 199.5,-0.5C 199.5,66.1667 199.5,132.833 199.5,199.5C 132.833,199.5 66.1667,199.5 -0.5,199.5C -0.5,132.833 -0.5,66.1667 -0.5,-0.5 Z"/></g>
<g><path style="opacity:1" fill="#fff9f7" d="M 142.5,143.5 C 142.5,146.167 142.5,148.833 142.5,151.5C 114.833,151.5 87.1667,151.5 59.5,151.5C 58.2101,150.942 57.3768,149.942 57,148.5C 56.3333,124.167 56.3333,99.8333 57,75.5C 70.5,62.6667 84,49.8333 97.5,37C 100.551,36.1433 103.217,36.81 105.5,39C 118,50.8333 130.5,62.6667 143,74.5C 143.667,91.8333 143.667,109.167 143,126.5C 142.097,127.701 140.931,128.535 139.5,129C 120.5,129.667 101.5,129.667 82.5,129C 81.6667,128.167 80.8333,127.333 80,126.5C 79.3333,112.833 79.3333,99.1667 80,85.5C 80.8333,84.6667 81.6667,83.8333 82.5,83C 94.1667,82.3333 105.833,82.3333 117.5,83C 118.333,83.8333 119.167,84.6667 120,85.5C 120.5,96.1615 120.667,106.828 120.5,117.5C 124.167,117.5 127.833,117.5 131.5,117.5C 131.667,104.829 131.5,92.1623 131,79.5C 120.667,69.8333 110.333,60.1667 100,50.5C 89.6667,60.1667 79.3333,69.8333 69,79.5C 68.5,99.8306 68.3334,120.164 68.5,140.5C 92.169,140.333 115.836,140.5 139.5,141C 140.571,141.852 141.571,142.685 142.5,143.5 Z"/></g>
<g><path style="opacity:1" fill="#ffde88" d="M 109.5,94.5 C 103.5,94.5 97.5,94.5 91.5,94.5C 91.5,102.167 91.5,109.833 91.5,117.5C 95.7016,117.183 99.7016,117.517 103.5,118.5C 99.1667,118.5 94.8333,118.5 90.5,118.5C 90.5,110.167 90.5,101.833 90.5,93.5C 97.0221,93.1765 103.355,93.5098 109.5,94.5 Z"/></g>
<g><path style="opacity:1" fill="#ffb90a" d="M 109.5,94.5 C 109.666,103.839 109.5,113.173 109,122.5C 107.549,120.536 105.716,119.203 103.5,118.5C 99.7016,117.517 95.7016,117.183 91.5,117.5C 91.5,109.833 91.5,102.167 91.5,94.5C 97.5,94.5 103.5,94.5 109.5,94.5 Z"/></g>
<g><path style="opacity:1" fill="#ffe9e2" d="M 142.5,143.5 C 143.477,146.287 143.81,149.287 143.5,152.5C 115.328,152.831 87.3284,152.498 59.5,151.5C 87.1667,151.5 114.833,151.5 142.5,151.5C 142.5,148.833 142.5,146.167 142.5,143.5 Z"/></g>
</svg>
